<mxfile host="Electron" agent="Mozilla/5.0 (Macintosh; Intel Mac OS X 10_15_7) AppleWebKit/537.36 (KHTML, like Gecko) draw.io/26.0.16 Chrome/132.0.6834.196 Electron/34.2.0 Safari/537.36" version="26.0.16">
  <diagram name="Page-1" id="b5b7bab2-c9e2-2cf4-8b2a-24fd1a2a6d21">
    <mxGraphModel dx="1368" dy="919" grid="1" gridSize="10" guides="1" tooltips="1" connect="1" arrows="1" fold="1" page="1" pageScale="1" pageWidth="800" pageHeight="500" background="none" math="0" shadow="0">
      <root>
        <mxCell id="0" />
        <mxCell id="1" parent="0" />
        <mxCell id="6e0c8c40b5770093-70" style="edgeStyle=none;rounded=0;html=1;dashed=1;labelBackgroundColor=none;startFill=0;endArrow=open;endFill=0;endSize=10;fontFamily=Verdana;fontSize=10;exitX=1.003;exitY=0.363;exitPerimeter=0;" parent="1" source="6e0c8c40b5770093-47" edge="1">
          <mxGeometry relative="1" as="geometry">
            <mxPoint x="1045.5" y="655.0341892819081" as="targetPoint" />
          </mxGeometry>
        </mxCell>
        <mxCell id="SJpRxN3frsaHmzI2igr6-1" value="Identity&amp;nbsp;&lt;span style=&quot;background-color: transparent; color: light-dark(rgb(0, 0, 0), rgb(255, 255, 255));&quot;&gt;Provider&lt;/span&gt;" style="rounded=0;whiteSpace=wrap;html=1;align=left;verticalAlign=top;spacingLeft=5;" vertex="1" parent="1">
          <mxGeometry x="40" y="40" width="240" height="130" as="geometry" />
        </mxCell>
        <mxCell id="SJpRxN3frsaHmzI2igr6-2" value="API Gateway" style="rounded=0;whiteSpace=wrap;html=1;align=left;verticalAlign=top;spacingLeft=5;" vertex="1" parent="1">
          <mxGeometry x="282" y="191" width="120" height="239" as="geometry" />
        </mxCell>
        <mxCell id="SJpRxN3frsaHmzI2igr6-3" value="Application" style="rounded=0;whiteSpace=wrap;html=1;align=left;verticalAlign=top;spacingLeft=5;spacingTop=0;" vertex="1" parent="1">
          <mxGeometry x="500" y="191" width="260" height="239" as="geometry" />
        </mxCell>
        <mxCell id="SJpRxN3frsaHmzI2igr6-7" style="edgeStyle=orthogonalEdgeStyle;rounded=0;orthogonalLoop=1;jettySize=auto;html=1;entryX=0;entryY=0.5;entryDx=0;entryDy=0;" edge="1" parent="1" source="SJpRxN3frsaHmzI2igr6-46" target="SJpRxN3frsaHmzI2igr6-15">
          <mxGeometry relative="1" as="geometry">
            <mxPoint x="175" y="361" as="sourcePoint" />
          </mxGeometry>
        </mxCell>
        <mxCell id="SJpRxN3frsaHmzI2igr6-9" style="edgeStyle=orthogonalEdgeStyle;rounded=0;orthogonalLoop=1;jettySize=auto;html=1;" edge="1" parent="1" target="SJpRxN3frsaHmzI2igr6-46">
          <mxGeometry relative="1" as="geometry">
            <mxPoint x="160" y="250" as="sourcePoint" />
            <mxPoint x="160" y="331" as="targetPoint" />
          </mxGeometry>
        </mxCell>
        <mxCell id="SJpRxN3frsaHmzI2igr6-23" style="edgeStyle=orthogonalEdgeStyle;rounded=0;orthogonalLoop=1;jettySize=auto;html=1;exitX=1;exitY=0.5;exitDx=0;exitDy=0;entryX=0;entryY=0.5;entryDx=0;entryDy=0;" edge="1" parent="1" source="SJpRxN3frsaHmzI2igr6-15" target="SJpRxN3frsaHmzI2igr6-17">
          <mxGeometry relative="1" as="geometry">
            <mxPoint x="370" y="491" as="targetPoint" />
          </mxGeometry>
        </mxCell>
        <mxCell id="SJpRxN3frsaHmzI2igr6-15" value="Request&lt;br&gt;Filters" style="rhombus;whiteSpace=wrap;html=1;fillColor=#ffe6cc;strokeColor=#d79b00;" vertex="1" parent="1">
          <mxGeometry x="302" y="321" width="80" height="80" as="geometry" />
        </mxCell>
        <mxCell id="SJpRxN3frsaHmzI2igr6-17" value="Autorisatie&lt;div&gt;laag&lt;/div&gt;" style="rhombus;whiteSpace=wrap;html=1;fillColor=#ffe6cc;strokeColor=#d79b00;" vertex="1" parent="1">
          <mxGeometry x="521" y="320.5" width="80" height="80" as="geometry" />
        </mxCell>
        <mxCell id="SJpRxN3frsaHmzI2igr6-51" style="rounded=0;orthogonalLoop=1;jettySize=auto;html=1;" edge="1" parent="1" source="SJpRxN3frsaHmzI2igr6-17" target="SJpRxN3frsaHmzI2igr6-52">
          <mxGeometry relative="1" as="geometry" />
        </mxCell>
        <mxCell id="SJpRxN3frsaHmzI2igr6-26" style="rounded=0;orthogonalLoop=1;jettySize=auto;html=1;" edge="1" parent="1" source="SJpRxN3frsaHmzI2igr6-20" target="SJpRxN3frsaHmzI2igr6-17">
          <mxGeometry relative="1" as="geometry" />
        </mxCell>
        <mxCell id="SJpRxN3frsaHmzI2igr6-20" value="Gebruiker autorisaties&lt;div&gt;&lt;br&gt;&lt;/div&gt;" style="shape=cylinder3;whiteSpace=wrap;html=1;boundedLbl=1;backgroundOutline=1;size=15;fillColor=#f8cecc;strokeColor=#b85450;" vertex="1" parent="1">
          <mxGeometry x="526" y="217.5" width="70" height="80" as="geometry" />
        </mxCell>
        <mxCell id="SJpRxN3frsaHmzI2igr6-53" style="edgeStyle=orthogonalEdgeStyle;rounded=0;orthogonalLoop=1;jettySize=auto;html=1;" edge="1" parent="1" source="SJpRxN3frsaHmzI2igr6-24" target="SJpRxN3frsaHmzI2igr6-52">
          <mxGeometry relative="1" as="geometry" />
        </mxCell>
        <mxCell id="SJpRxN3frsaHmzI2igr6-24" value="&lt;div&gt;Applicatie&lt;/div&gt;&lt;div&gt;gegevens&lt;/div&gt;" style="shape=cylinder3;whiteSpace=wrap;html=1;boundedLbl=1;backgroundOutline=1;size=15;fillColor=#f8cecc;strokeColor=#b85450;" vertex="1" parent="1">
          <mxGeometry x="659" y="217.5" width="66" height="80" as="geometry" />
        </mxCell>
        <mxCell id="SJpRxN3frsaHmzI2igr6-33" value="Token" style="sketch=0;pointerEvents=1;shadow=0;dashed=0;html=1;strokeColor=#b85450;fillColor=#f8cecc;labelPosition=center;verticalLabelPosition=bottom;verticalAlign=top;outlineConnect=0;align=center;shape=mxgraph.office.concepts.sign_up;" vertex="1" parent="1">
          <mxGeometry x="139" y="207" width="51" height="47" as="geometry" />
        </mxCell>
        <mxCell id="SJpRxN3frsaHmzI2igr6-36" style="rounded=0;orthogonalLoop=1;jettySize=auto;html=1;entryX=0;entryY=0;entryDx=0;entryDy=0;" edge="1" parent="1" source="SJpRxN3frsaHmzI2igr6-34" target="SJpRxN3frsaHmzI2igr6-15">
          <mxGeometry relative="1" as="geometry" />
        </mxCell>
        <mxCell id="SJpRxN3frsaHmzI2igr6-34" value="Token" style="sketch=0;pointerEvents=1;shadow=0;dashed=0;html=1;strokeColor=#b85450;fillColor=#f8cecc;labelPosition=center;verticalLabelPosition=bottom;verticalAlign=top;outlineConnect=0;align=center;shape=mxgraph.office.concepts.sign_up;" vertex="1" parent="1">
          <mxGeometry x="226" y="309.5" width="51" height="47" as="geometry" />
        </mxCell>
        <mxCell id="SJpRxN3frsaHmzI2igr6-37" style="rounded=0;orthogonalLoop=1;jettySize=auto;html=1;" edge="1" parent="1" source="SJpRxN3frsaHmzI2igr6-35" target="SJpRxN3frsaHmzI2igr6-17">
          <mxGeometry relative="1" as="geometry" />
        </mxCell>
        <mxCell id="SJpRxN3frsaHmzI2igr6-35" value="Token" style="sketch=0;pointerEvents=1;shadow=0;dashed=0;html=1;strokeColor=#b85450;fillColor=#f8cecc;labelPosition=center;verticalLabelPosition=bottom;verticalAlign=top;outlineConnect=0;align=center;shape=mxgraph.office.concepts.sign_up;" vertex="1" parent="1">
          <mxGeometry x="444" y="308.5" width="51" height="47" as="geometry" />
        </mxCell>
        <mxCell id="SJpRxN3frsaHmzI2igr6-44" style="rounded=0;orthogonalLoop=1;jettySize=auto;html=1;" edge="1" parent="1" source="SJpRxN3frsaHmzI2igr6-39" target="SJpRxN3frsaHmzI2igr6-33">
          <mxGeometry relative="1" as="geometry" />
        </mxCell>
        <mxCell id="SJpRxN3frsaHmzI2igr6-39" value="&lt;div&gt;Gebruikers&lt;/div&gt;&lt;div&gt;administratie&lt;/div&gt;" style="shape=cylinder3;whiteSpace=wrap;html=1;boundedLbl=1;backgroundOutline=1;size=15;fillColor=#f8cecc;strokeColor=#b85450;" vertex="1" parent="1">
          <mxGeometry x="58" y="70" width="72" height="80" as="geometry" />
        </mxCell>
        <mxCell id="SJpRxN3frsaHmzI2igr6-43" style="rounded=0;orthogonalLoop=1;jettySize=auto;html=1;" edge="1" parent="1" source="SJpRxN3frsaHmzI2igr6-41" target="SJpRxN3frsaHmzI2igr6-33">
          <mxGeometry relative="1" as="geometry" />
        </mxCell>
        <mxCell id="SJpRxN3frsaHmzI2igr6-41" value="Dynamic &lt;br&gt;roles" style="rhombus;whiteSpace=wrap;html=1;fillColor=#ffe6cc;strokeColor=#d79b00;" vertex="1" parent="1">
          <mxGeometry x="177" y="72" width="80" height="80" as="geometry" />
        </mxCell>
        <mxCell id="SJpRxN3frsaHmzI2igr6-47" value="&amp;nbsp;Verwerking" style="rounded=1;whiteSpace=wrap;html=1;align=left;verticalAlign=bottom;fillColor=none;spacingLeft=5;spacingBottom=2;" vertex="1" parent="1">
          <mxGeometry x="630" y="306" width="120" height="114" as="geometry" />
        </mxCell>
        <mxCell id="SJpRxN3frsaHmzI2igr6-56" style="edgeStyle=orthogonalEdgeStyle;rounded=0;orthogonalLoop=1;jettySize=auto;html=1;" edge="1" parent="1" source="SJpRxN3frsaHmzI2igr6-45" target="SJpRxN3frsaHmzI2igr6-15">
          <mxGeometry relative="1" as="geometry" />
        </mxCell>
        <mxCell id="SJpRxN3frsaHmzI2igr6-45" value="Applicatie contracten&lt;div&gt;&lt;br&gt;&lt;/div&gt;" style="shape=cylinder3;whiteSpace=wrap;html=1;boundedLbl=1;backgroundOutline=1;size=15;fillColor=#f8cecc;strokeColor=#b85450;" vertex="1" parent="1">
          <mxGeometry x="307" y="217.5" width="70" height="80" as="geometry" />
        </mxCell>
        <mxCell id="SJpRxN3frsaHmzI2igr6-46" value="" style="sketch=0;outlineConnect=0;fontColor=#232F3E;gradientColor=none;fillColor=#232F3D;strokeColor=none;dashed=0;verticalLabelPosition=bottom;verticalAlign=top;align=center;html=1;fontSize=12;fontStyle=0;aspect=fixed;pointerEvents=1;shape=mxgraph.aws4.user;" vertex="1" parent="1">
          <mxGeometry x="121" y="322.5" width="78" height="78" as="geometry" />
        </mxCell>
        <mxCell id="SJpRxN3frsaHmzI2igr6-49" value="Toegangslogica" style="rounded=0;whiteSpace=wrap;html=1;fillColor=#ffe6cc;strokeColor=none;" vertex="1" parent="1">
          <mxGeometry x="570" y="40" width="190" height="40" as="geometry" />
        </mxCell>
        <mxCell id="SJpRxN3frsaHmzI2igr6-50" value="Beslisgegevens" style="rounded=0;whiteSpace=wrap;html=1;fillColor=#f8cecc;strokeColor=none;" vertex="1" parent="1">
          <mxGeometry x="570" y="100" width="188.5" height="40" as="geometry" />
        </mxCell>
        <mxCell id="SJpRxN3frsaHmzI2igr6-52" value="&lt;div&gt;In-line autorisaties&lt;/div&gt;" style="rhombus;whiteSpace=wrap;html=1;fillColor=#ffe6cc;strokeColor=#d79b00;" vertex="1" parent="1">
          <mxGeometry x="652" y="320.5" width="80" height="80" as="geometry" />
        </mxCell>
      </root>
    </mxGraphModel>
  </diagram>
</mxfile>
